<svg xmlns="http://www.w3.org/2000/svg" viewBox="0 0 220 44" width="220" height="44">
  <!-- Sparkles icon (Heroicons MIT) scaled 1.5x from 24→36px -->
  <g transform="translate(2, 4) scale(1.5)" fill="none" stroke="#10B981" stroke-width="1.5" stroke-linecap="round" stroke-linejoin="round">
    <path d="M9.813 15.904 9 18.75l-.813-2.846a4.5 4.5 0 0 0-3.09-3.09L2.25 12l2.846-.813a4.5 4.5 0 0 0 3.09-3.09L9 5.25l.813 2.846a4.5 4.5 0 0 0 3.09 3.09L15.75 12l-2.846.813a4.5 4.5 0 0 0-3.09 3.09ZM18.259 8.715 18 9.75l-.259-1.035a3.375 3.375 0 0 0-2.455-2.456L14.25 6l1.036-.259a3.375 3.375 0 0 0 2.455-2.456L18 2.25l.259 1.035a3.375 3.375 0 0 0 2.456 2.456L21.75 6l-1.035.259a3.375 3.375 0 0 0-2.456 2.456ZM16.894 20.567 16.5 21.75l-.394-1.183a2.25 2.25 0 0 0-1.423-1.423L13.5 18.75l1.183-.394a2.25 2.25 0 0 0 1.423-1.423l.394-1.183.394 1.183a2.25 2.25 0 0 0 1.423 1.423l1.183.394-1.183.394a2.25 2.25 0 0 0-1.423 1.423Z"/>
  </g>
  <!-- IntelliExtract label -->
  <text x="44" y="25" font-family="-apple-system, BlinkMacSystemFont, 'Segoe UI', Helvetica, Arial, sans-serif" font-size="15" font-weight="600" fill="#ffffff" letter-spacing="0.3">IntelliExtract</text>
  <!-- RUNNER sub-label -->
  <text x="45" y="39" font-family="-apple-system, BlinkMacSystemFont, 'Segoe UI', Helvetica, Arial, sans-serif" font-size="8.5" font-weight="500" fill="#10B981" letter-spacing="3.5">RUNNER</text>
</svg>
